<?xml version="1.0" encoding="utf-8"?>
<!-- Generator: Adobe Illustrator 26.0.1, SVG Export Plug-In . SVG Version: 6.00 Build 0)  -->
<svg version="1.1" xmlns="http://www.w3.org/2000/svg" xmlns:xlink="http://www.w3.org/1999/xlink" x="0px" y="0px"
	 viewBox="0 0 32 32" style="enable-background:new 0 0 32 32;" xml:space="preserve">
<style type="text/css">
	.st0{fill:#FFFFFF;}
</style>
<g id="Layer_2">
	<rect width="32" height="32"/>
</g>
<g id="Layer_1">
	<g>
		<path class="st0" d="M32,20.8l-5.1-5.1C26.8,9.9,22,5.2,16.2,5.2c-5.8,0-10.5,4.6-10.8,10.3L0,20.9L1.1,22l4.5-4.5
			c0.7,5.2,5.2,9.3,10.7,9.3c5.4,0,9.8-3.9,10.6-9l4.2,4.2L32,20.8z M16.2,25.3c-5.1,0-9.2-4.1-9.3-9.2L11,12l4,4l-4.9,4.9l1.1,1.1
			L16,17l4.9,4.9l1.1-1.1L17.1,16l4-4l4.4,4.4C25.3,21.4,21.2,25.3,16.2,25.3z M21.1,9.9l-5,5l-5-5l-3.9,3.9c1-4.1,4.7-7.2,9.1-7.2
			c4.5,0,8.3,3.2,9.1,7.5L21.1,9.9z"/>
	</g>
</g>
</svg>
