<?xml version="1.0" encoding="utf-8"?>
<!-- Generator: Adobe Illustrator 17.1.0, SVG Export Plug-In . SVG Version: 6.00 Build 0)  -->
<!DOCTYPE svg PUBLIC "-//W3C//DTD SVG 1.1//EN" "http://www.w3.org/Graphics/SVG/1.1/DTD/svg11.dtd">
<svg version="1.1" id="Layer_1" xmlns="http://www.w3.org/2000/svg" xmlns:xlink="http://www.w3.org/1999/xlink" x="0px" y="0px"
	 viewBox="0 0 412.5 41.3" enable-background="new 0 0 412.5 41.3" xml:space="preserve">
<g>
	<path fill="#FFFFFF" d="M4.8,2.2C4.7,3.6,4.6,8,4.6,11.9v12.5c0,7,4.1,11.6,9.8,11.6s9.7-4.7,9.7-11.6V11.9c0-3.1,0-7.4-0.2-9.7
		h4.8c-0.1,2.4-0.2,6.7-0.2,9.7v12.4c0,9.6-5.9,15.6-14.2,15.6c-8.3,0-14.2-5.9-14.2-15.6V11.9C0.2,8,0.1,3.6,0,2.2H4.8z"/>
	<path fill="#FFFFFF" d="M35.4,39.2c0.1-1.5,0.2-5,0.2-7.8V11.8c0-3.2-0.1-7.5-0.2-10.4h1c1.6,2,2.6,3.1,4.4,5.1l20,23.8V11.9
		c0-3.1-0.1-7.4-0.2-9.7h4.5c-0.1,2.4-0.2,6.7-0.2,9.7v20.2c0,2.3,0,4.7,0.2,7.8h-1c-1.4-1.7-2.3-2.8-4-4.8L39.9,10.8l-0.1,20.6
		c0,2.8,0.1,6.3,0.2,7.8H35.4z"/>
	<path fill="#FFFFFF" d="M72,39.2c0.2-1.7,0.3-6,0.3-9.7V11.9c0-3.7-0.1-8.1-0.3-9.7h10.4c10.2,0,18.6,8.3,18.6,18.5
		c0,10.2-8.4,18.6-18.6,18.6H72z M76.7,35.6h5.5c8,0,14.4-6.8,14.4-14.9S90.2,5.8,82.1,5.8h-5.5V35.6z"/>
	<path fill="#FFFFFF" d="M111.2,35.6h4.8c3.7,0,7.5-0.1,9.1-0.2v4c-1.6-0.1-5.4-0.2-9.1-0.2h-9.4c0.1-3,0.2-7.2,0.2-9.7V11.8
		c0-3.7-0.1-8-0.2-9.6h8.9c3.7,0,7.5-0.1,9.1-0.2V6c-1.7-0.2-5.4-0.2-9.1-0.2h-4.3v11.8h4.3c3.7,0,6.8-0.1,8.4-0.2v4
		c-1.7-0.1-4.8-0.2-8.4-0.2h-4.3V35.6z"/>
	<path fill="#FFFFFF" d="M137.2,29.9c0,3.7,0.1,7.7,0.2,9.4h-4.8c0.2-1.7,0.2-5.7,0.2-9.4v-18c0-3.7-0.1-8.1-0.2-9.7h7.7
		c8.2,0,12.7,4.5,12.7,10.8c0,5.8-3.6,8.8-7.3,10c3.9,4.9,8.5,12.2,12.8,16.2h-6c-3-3.9-7.5-10.1-10.7-15.5
		c-0.6,0.1-1.2,0.1-1.8,0.1h-2.9V29.9z M137.2,20.6h3.5c4.5,0,7.8-3,7.8-7.5c0-3.8-2.8-7.4-8.4-7.4h-3V20.6z"/>
	<path fill="#FFFFFF" d="M263.5,2.2c3.7,0,7.7-0.1,9.4-0.2v4c-1.7-0.1-5.6-0.2-9.4-0.2h-3.8c-0.1,2-0.1,4.8-0.1,7v16.8
		c0,3.7,0.1,8,0.2,9.7h-4.8c0.1-1.7,0.2-6,0.2-9.7V12.8c0-2.2-0.1-5-0.2-7h-3.7c-3.7,0-7.6,0.1-9.3,0.2V2c1.7,0.1,5.6,0.2,9.3,0.2
		H263.5z"/>
	<path fill="#FFFFFF" d="M301,39.2c-0.5-1.6-1.4-3.7-2.4-6.1l-2.7-6.4h-14.1l-2.7,6.3c-1.2,2.9-1.9,4.8-2.4,6.2h-5
		c1.2-2.3,2.7-5.2,3.9-8.2l12.8-29.5h1.2L302.6,31c1.4,3,2.8,6,4.1,8.2H301z M288.8,9.4l-5.6,13.6h11.1L288.8,9.4z"/>
	<path fill="#FFFFFF" d="M311.6,39.2c0.2-1.7,0.3-6,0.3-9.7v-17c0-3.7-0.1-8.8-0.2-10.4h8c6.9,0,10.5,4.1,10.5,8.8
		c0,3.7-2.3,6.4-4.6,7.3c4.4,1.3,7.4,5.1,7.4,10c0,6.1-4.8,11-12.7,11H311.6z M316.2,17.2h4.2c3,0,5.4-2.4,5.4-5.8
		c0-3.5-2.8-5.8-6.5-5.8h-3V17.2z M316.2,35.7h3.7c4.9,0,8.5-3,8.5-7.5c0-4.7-3.4-7.7-8-7.7h-4.3V35.7z"/>
	<path fill="#FFFFFF" d="M345,35.5h6.5c3.7,0,7-0.1,8.7-0.2v4.1c-1.6-0.1-5-0.2-8.7-0.2h-11.1c0.1-3,0.2-7.2,0.2-9.7V11.9
		c0-3.7-0.1-8.1-0.2-9.7h4.8c-0.1,1.6-0.2,6-0.2,9.7V35.5z"/>
	<path fill="#FFFFFF" d="M371.5,35.6h4.8c3.7,0,7.5-0.1,9.1-0.2v4c-1.6-0.1-5.4-0.2-9.1-0.2h-9.4c0.1-3,0.2-7.2,0.2-9.7V11.8
		c0-3.7-0.1-8-0.2-9.6h8.9c3.7,0,7.5-0.1,9.1-0.2V6c-1.7-0.2-5.4-0.2-9.1-0.2h-4.3v11.8h4.3c3.7,0,6.8-0.1,8.4-0.2v4
		c-1.7-0.1-4.8-0.2-8.4-0.2h-4.3V35.6z"/>
	<path fill="#FFFFFF" d="M412.5,29.5c0,6.2-4.5,10.6-11.2,10.6c-3.5,0-5.6-0.9-8.4-1.4v-6.2c1.4,2.3,4.9,4,8.5,4
		c4,0,6.4-2.7,6.4-6.5c0-8-13.8-8-13.8-18.7c0-6.3,4.5-10,10.7-10c2.8,0,4.5,0.8,6.8,1v5.8c-1-2.4-3.7-3.5-6.8-3.5
		c-3.6,0-6.2,2.2-6.2,6C398.5,18.6,412.5,18.8,412.5,29.5z"/>
</g>
<g>
	<path fill="#FFFFFF" d="M179.1,12.7c1.7,0,3.6,0,4.3-0.1v1.9c-0.8,0-2.6-0.1-4.3-0.1h-1.8c0,0.9,0,2.2,0,3.2v7.8
		c0,1.7,0,3.7,0.1,4.5h-2.2c0.1-0.8,0.1-2.8,0.1-4.5v-7.8c0-1,0-2.3-0.1-3.2h-1.7c-1.7,0-3.5,0.1-4.3,0.1v-1.9
		c0.8,0.1,2.6,0.1,4.3,0.1H179.1z"/>
	<path fill="#FFFFFF" d="M210.5,12.7c-0.5,1-0.9,1.8-1.7,3.5l-6.4,14h-0.3l-3.7-8l-3.7,8h-0.3L188,16.1c-0.6-1.4-1.2-2.5-1.8-3.5
		h2.5c0.3,0.8,0.7,1.8,1.3,3l4.9,11.1l2.7-6.4l-1.9-4.2c-0.8-1.8-1.2-2.5-1.8-3.5h2.3c0.3,0.8,0.6,1.5,1.4,3.3l1,2.2l1-2.2
		c0.7-1.6,1-2.4,1.3-3.2h2.2c-0.4,0.5-0.9,1.7-1.8,3.5l-1.8,3.9l2.9,6.6l4.6-10.7c0.9-1.9,1.2-2.7,1.4-3.3H210.5z"/>
	<path fill="#FFFFFF" d="M219.5,12.4c5,0,8.9,4,8.9,8.9c0,4.9-3.9,8.9-8.9,8.9s-8.9-4-8.9-8.9C210.6,16.4,214.6,12.4,219.5,12.4z
		 M219.5,28.4c3.8,0,6.8-3.2,6.8-7.2c0-3.9-3-7.1-6.8-7.1c-3.8,0-6.8,3.2-6.8,7.1C212.7,25.2,215.8,28.4,219.5,28.4z"/>
</g>
<g>
	<rect x="168.1" y="4" fill="#FFFFFF" width="61" height="1"/>
</g>
<g>
	<rect x="168.1" y="39" fill="#FFFFFF" width="61" height="1"/>
</g>
</svg>
