<?xml version="1.0" encoding="utf-8"?>
<!-- Generator: Adobe Illustrator 26.0.1, SVG Export Plug-In . SVG Version: 6.00 Build 0)  -->
<svg version="1.1" id="Layer_1" xmlns="http://www.w3.org/2000/svg" xmlns:xlink="http://www.w3.org/1999/xlink" x="0px" y="0px"
	 viewBox="0 0 300 213.5" style="enable-background:new 0 0 300 213.5;" xml:space="preserve">
<style type="text/css">
	.st0{fill:#FFFFFF;}
</style>
<g>
	<polygon class="st0" points="92.4,150.6 93,150.2 93.9,148.9 92,149.7 	"/>
	<path class="st0" d="M96.1,146.6C96.1,146.6,96.1,146.6,96.1,146.6c0.2-0.3,0.4-0.5,0.5-0.7C96.5,146.1,96.3,146.4,96.1,146.6z"/>
	<path class="st0" d="M298,148.7c-0.4-0.4-0.6-0.7-0.8-0.8c-0.5-0.5-1.1-1-1.7-1.6c-10.6-10.9-20.8-22.9-30.1-32
		c-2.2-1.8-4.6-3.9-6.5-5.3c-1.2-1.5-1.9-1.7-3.1-2.9c0-3.7,0-7.9-0.3-12.2c-0.4-5.7-1.3-11.8-2.7-17.2c-1.4-5.4-3.5-10.2-5.5-13.6
		c-2.3-4.8-4.7-8.2-6-9.4c-0.7-0.6-1-0.8-1-0.3c0,0.5,0.4,1.6,1.2,3.4c-3.4-6.3-4.7-8.6-5.7-10.8c-1.1-2.1-2.1-4-6.1-8.5
		c1.2,0.8,2.3,1.6,3.5,2.4c-0.6-0.8-1.1-1.7-1.7-2.6c-0.6-0.9-1.3-1.8-1.9-2.7c-1.3-1.9-3-3.7-4.9-5.5c-1.8-1.1-3.4-2.2-5.2-3.1
		c-5-5.3-9.8-8.5-14.9-11.2c-5.2-2.7-10.6-5.1-17.7-8.3c4.6,2.3,3.4,2,1.2,1.4c-2.2-0.7-5.5-1.6-5.1-0.9c-2-1.4-11-3.9-7.8-3.5
		c-1.6-0.4-3.2-0.8-4.8-1.1c-1.6-0.3-3.2-0.5-4.7-0.7c-1.5-0.1-3.1-0.2-4.5-0.4c-1.5-0.1-2.9-0.1-4.3-0.1c-1.4-0.1-2.7,0-4,0
		c-1.3,0-2.5-0.1-3.7,0c-2.4,0-4.5-0.2-6.4-0.5c-1.6,0.3-3.2,0.6-4.7,1c-2,0.5-3.9,0.8-5.8,1.1c-0.9,0.2-1.8,0.3-2.7,0.5
		c-0.9,0.2-1.8,0.3-2.7,0.5c-0.9,0.2-1.8,0.3-2.7,0.5c-0.9,0.2-1.8,0.4-2.6,0.6c-0.9,0.2-1.8,0.4-2.7,0.6c-0.9,0.3-1.8,0.5-2.7,0.8
		l-0.8,1c-2.3,1-5.5,2.4-8.6,3.8c-1.6,0.7-3.1,1.4-4.5,2c-1.4,0.6-2.7,1.2-3.7,1.6c-5.8,3.1-11.7,7.6-17,12.9
		c-1.3,1.3-2.5,2.7-3.8,4c-1.2,1.4-2.4,2.8-3.5,4.2c-0.4,0.5-0.8,1-1.2,1.5c-6.6,7.6-12.2,16.2-16.4,25.5c0.3-1.1,1.4-3.8,2.5-6.2
		c1.7-3.6,3.2-6.6,0.3-2.5c-2.3,5-4.5,10.2-6.4,15.8c-1.9,5.5-3.4,11.4-4.4,17.2c-0.9,5.6-1.4,11.2-1.3,16.6
		c-7.9,8.1-15.6,16.1-23.1,22.1c-9.6,8-18.9,19-24.1,25.8L0,151.6l0.1,0.1c1.7,1.3,3.1,2.3,4.1,3c-0.9-1-1.8-2-2.6-3
		c12.3-11.2,21.8-23.5,32.6-30.3c-6.1,5.6-8.4,8.1-10.9,11.2c0,0-0.1,0.1-0.2,0.1l-0.5,0.7c-1.3,1.6-2.6,3.3-4.6,5.8l1.4-1.1
		l-3.2,4.7c1.1-1.2,2.3-2.5,3.6-3.7c1.1-0.3-1.9,3.5-1,3.5l4.9-4.9c-0.7,0.9-1.5,2.1-3.3,4.1c-1.3,1.1-3.7,3.3-3.1,2.2
		c-3,3.3-12,11-11.4,12.2c-0.3,0.2-0.5,0.3-0.7,0.5c2.6,0.5,7.7-1.6,13.7-4.7c3.2-3.5,6-6.9,8.2-10c9.7-8.2,15.1-15.2,21.5-22.8
		c0.1,0.4,0.1,0.7,0.2,1.1c-0.5,1,0.1,6.4,1.9,12.6c1,3.6,2.4,7.4,3.9,10.7c0.7,1.7,1.5,3.2,2.2,4.6c0.7,1.4,1.4,2.6,1.9,3.5
		l-0.2,0.7c0.8,1.7,1.7,3.2,2.5,4.8c0.9,1.5,1.8,3,2.9,4.6c2.2,3.1,4.8,6.7,9.1,10.9c4.8,5.3,10.1,10,15.5,14
		c5.4,4.1,10.9,7.6,16.1,10.7c7.7,4.5,17.3,7.5,25.7,8.5c5.9,0.8,11.1,0.7,15,0.3c1.4,0.1,2.9,0.1,4.4,0.1c6.9,0,13.7-0.7,20.2-2
		c-0.1,0-0.1,0-0.2,0.1c0.2,0,0.3-0.1,0.5-0.1c2.6-0.5,5.2-1.2,7.8-1.9c0.7-0.2,1.5-0.4,2.2-0.6l-0.1-0.1c4.9-1.5,9.6-3.4,14.1-5.6
		c-1.2,0.7-2.4,1.3-3.6,2c5.3-2.1,1.2,0.4-0.2,1.2c-1.4,0.5-2.5,0.9-3.5,1.2c-1,0.4-1.8,0.7-2.4,0.9c-1.4,0.5-2.2,0.9-3,1.3
		c-0.8,0.4-1.5,0.8-2.6,1.2c-0.5,0.2-1.1,0.5-1.9,0.7c-0.7,0.3-1.6,0.6-2.7,0.8c-1,0.2-2.4,0.4-3.4,0.5c-1,0.1-1.6,0.1-1-0.2
		c-1.3,0.3-3.1,0.6-5.1,0.9c-1,0.1-2.1,0.2-3.1,0.3c-0.5,0.1-1.1,0.1-1.6,0.2c-0.5,0-1.1,0.1-1.6,0.1c-4.1,0.3-7.6,0.4-7.9,1
		c-0.5,0-0.6-0.1-1-0.1c0.9,1.1,2.8,2.1,5.6,3.1c1.4,0.4,3,0.8,4.7,1.2c1.8,0.4,3.7,0.6,5.7,0.9c5.7-1.2,10.9-2.7,15.2-4.6
		c6.1-1.4,11.2-3.4,15.8-5.7c1.1-0.6,2.2-1.2,3.3-1.8c1.1-0.6,2.1-1.2,3.1-1.9c1-0.7,2-1.3,3-2c1-0.7,1.9-1.4,2.9-2.1l1.4-1.1
		l1.4-1.1c0.9-0.8,1.8-1.5,2.8-2.3c1.8-1.6,3.7-3.2,5.5-5c1.9-1.7,3.7-3.7,5.8-5.6c1-1,2-2.1,3-3.1c1-1.1,2-2.2,3.1-3.4
		c7.2-8.7,12.1-17.1,15.8-25.9c1-2.2,1.8-4.4,2.7-6.6c0.4-1.1,0.8-2.3,1.2-3.4c0.2-0.6,0.4-1.1,0.6-1.7c0.2-0.6,0.3-1.2,0.5-1.8
		c1.1-3.6,2.1-7.5,2.9-11.5c1.7,1.8,3.5,3.7,5.5,5.7c0.1-0.1,0.9,0.7,1.3,1c0.4,1,19.2,18.4,28,26.8l2.1,2l1.9-2
		c1.5-1.6,2.7-2.9,3.5-3.6l2-1.9L298,148.7z M183,188.2c-1.8,1-4.5,2.1-3.9,2.4c-2.1,0.4-10.1,2.1-7.5,1c-5.6,1.2-10.9,2.4-15.8,3
		c-4.9,0.6-9.2,0.6-12.4-0.6c-1.4,0.1-2.8,0.2-4.2,0.2c-1.8,0-3.5-0.1-5.1-0.5c-0.8-0.1-1.6-0.3-2.4-0.5c-0.8-0.2-1.5-0.4-2.3-0.6
		c-0.8-0.2-1.5-0.5-2.3-0.7c-0.7-0.3-1.5-0.5-2.2-0.8c-0.7-0.3-1.5-0.5-2.2-0.8c-0.7-0.3-1.5-0.6-2.3-0.9l-1.1,0.4
		c-2.1-0.6-5.1-1.6-7.8-2.9c-1.4-0.6-2.7-1.4-3.8-2.1c-1.2-0.7-2.2-1.4-2.9-2c-4.9-3-10.3-6.5-15.5-10.5c-3.2-2.4-6.2-5.1-9-7.8
		c-5.9-6.8-10.9-14.5-14.6-22.9c0.5,0.6,1.8,3.2,3.2,5.4c1.9,3.1,3.6,5.4,1.8,1.4c-2.7-4-5-8.5-6.9-13.4c-1.9-4.9-3.2-10-4.1-15.3
		c-0.7-3.8-1.1-7.5-1.3-11.2c1.4-1.4,2.9-2.8,4.5-4.3C76,90.9,84.9,80.8,98.1,68.7c-0.3-1,0.5-2.5,2-4.1c0.5,0.4,1.1,1,1.7,1.6
		c0.7,0.8,1.5,1.6,2.3,2.4c2.4,2.6,5,5.3,7.5,8c5.1,5.4,10.1,10.5,14.3,13.4c3.6,3.3,6.6,5.5,7.8,5.9l0.8,0.6c2,2.3,3.8,4.2,5.6,6
		c-0.9,0.7-1.7,1.4-2.2,1.7c-2.3,2-1.1,1.4-2.7,3l-0.5-0.1c-2.1,2.5-3.7,3.1-5.7,5.3c0,0.2-0.8,1-1.6,1.8c-0.3-0.3-2.4,2.4-2.5,2
		l0,0c-0.5,0.5-0.8,0.8-1.4,1.3c-0.8,1-8.2,10.1-9,11.1l-0.5,0.4c-1.2,1.2-1.5,2-0.8,1.3l-1.5,1.5l0.2-0.2l-1.5,1.5
		c-0.3,0.3-0.8,0.4-0.5-0.1c-0.8,1-1.7,2-2.6,2.8c2.6-2.2,5.8-4.9,8.6-7.1c-0.9,1.1-2.9,2.8-4,4c-1.5,1.1-4.4,3.7-6.7,5.7
		c-0.5,0.5-0.4,1.1-1.6,2c-0.7,0.3-1.2,1.2-2.2,1.9c0.9-1.1,1.9-2.1,3-3.1c-0.4-0.1-2.7,2.3-3.6,3c-0.3,0.5-2.4,2.4-3.5,3.7
		c0.2-0.5-0.4,0-1,0.6c-0.1,0.1-0.2,0.3-0.3,0.4c0.1-0.1,0.2-0.3,0.3-0.4c-0.3,0.3-0.7,0.6-1,0.8c-0.5,0.4-0.8,0.8-0.9,1l-0.3,0.4
		l0.5-0.2c0.1,0,0.2-0.1,0.3-0.2c-0.1,0.1-0.1,0.2-0.2,0.3l-0.8,1l-0.7,0.5l-0.4,0.6l-0.1-0.3l-0.1,0.1l0.2,0.3l-1.2,1.8l2.9,2
		c0.2,0.1,0.3,0.1,0.2-0.1c0.1,0,0.1,0,0-0.1l-0.1-0.2l0.2,0.2c2.2,1.7,4.5,3.6,4,3.1c-0.2-0.3-0.2-0.3-0.1-0.3
		c0.1,0.1,0.2,0.1,0.2,0.1c0.2,0.1,0.3,0.1,0-0.3l-0.4-0.3c-3.6-3.8,4.8,1.7,0.6-2.6c1.4,2-0.5,0.2-2.3-1.6l-0.9-0.8l0.9-0.9
		c0.2-0.2,0.4-0.4,0.6-0.6c0.3-0.1,1.3-0.8,2.8-2.1c1.2-1.2,0.6-0.8,0.7-1.1c0.7-0.6,2.1-1.8,2.1-1.5c0.7-1.1,1.6-1.4,2.7-2.6
		c0.9-1.1-0.2,0,0.4-0.8c1.5-1.5,3.6-3.5,4.9-4.7c0.6-0.3,2.3-1.4,1.6-0.1c-2.3,2.2,0.4-1.3-1.9,1.1c1.4-0.6-2,2.2-2.1,2.9
		c0.9-0.6,2.4-2.1,3.7-3.4l-0.3,0.2c1.1-1.2,3.2-3.5,4.6-4.5c-0.2,0.4,0.5,0-0.3,0.8l1.6-1.5c0.2-0.2,0.3-0.5-0.2-0.1
		c0.6-0.8,1.4-1.5,2-2c0.3,0,7.6-8.8,7.4-8.4c0.5-0.5,0.9-0.8,1.3-1.1c-0.1,0.1-0.2,0.2-0.3,0.3c-0.9,1-2.1,2.4-3.3,3.7
		c-2.4,2.6-4.5,5.1-3.8,4.3c1.1-0.8,11.9-13.3,12.8-13.7c0.8-0.8,1.8-1.9,1.4-1.8c1.5-1.3-0.1,0.7,1-0.2c0,0-0.2,0,0.2-0.3l1.1-0.8
		c1.5-1.9,3.9-4,5.9-6.1c0.1,0.1,0.2,0.2,0.2,0.3c-0.3,0.4-0.6,0.9-1.1,1.4l-0.3,0.2c-0.2,0.3-1.3,1.5-1.1,1.6
		c1-0.9,1.9-1.8,2.8-2.8c0.4,0.5,0.9,1.1,1.3,1.6c-4.5,5-8.6,9.9-14.7,15.7c-4.5,5.3-11.2,12.5-12.5,15.1c-5.6,5.7-7.5,8.3-12.9,14
		c1.7-1.1-5,5.8-2,3.3c4.1-3.2,3.9-3.8,7.4-6.6l-0.2,0c13-12.2,25.9-24.5,38.7-37.1c0.4,0.4,0.9,0.9,1.4,1.3l4.5,2.7
		c7.7,9.7,14.4,12.9,23.3,23c-5.3-6.5,2.6,1.5,3.3,1c0.1,0.1,0.3,0.3,0.4,0.4c1.6,2.2,6,7,4,5.4c2.8,3,5.8,5.7,8.6,8.2l1.3,1.1
		l1-1.1c1.2-1.3,2.3-2.6,3.4-3.8l0.9-1l-0.9-0.8c-3.3-3-6-5.7-7.5-8.4l-3.3-2.5c-5.6-4.5-8.9-9.1-13.3-13.9l-1.1-0.1
		c-3.3-2.8-8.9-8.4-11.1-11.5c-2.2-2.4-4.7-4.8-7.3-7.2c9.2-9.7,19.5-19.6,29.2-29.4c2.4-2.4,4.8-4.9,7.2-7.4l3.5-3.6
		c0.3-0.4,0.6-0.7,1-1.1l0.7,0.6l0.4,0.3l0.1,0.1l0.2,0.2l0.6,0.6c1.6,1.5,3.1,3,4.6,4.5c3,2.9,6,5.7,8.7,8.3
		c2.3,2.2,3.7,4.1,5.5,6.1c6,5.8,12.9,12.8,19.9,19.7c0,2.5-0.2,5.2-0.6,7.9c-0.6,4.7-1.7,9.6-2.9,14c-1.2,4.5-2.5,8.4-3.2,11.7
		c-1.6,4.1-2.7,7.4-3,8.9c-0.2,0.8-0.1,1.1,0.3,0.9c0.4-0.2,1.1-1,2-2.4c-2.9,5.6-4.6,7.3-6,8.9c-1.5,1.5-2.6,2.9-5.7,7.1
		c0.4-1.2,0.8-2.4,1.2-3.5c-0.6,0.6-1.2,1.2-1.8,1.9c-0.7,0.6-1.3,1.2-2,1.9c-1.3,1.4-2.9,2.7-4.3,4.4c-0.9,1.4-1.8,2.9-2.8,4.4
		c-5.1,3.5-8.8,6.5-12.8,9.4c-4,2.8-8.4,5.6-14.8,7.6C185.6,186.7,184.8,187.2,183,188.2z M143.6,106.1c0.1,0.1,0.1,0.1,0.2,0.2
		c0,0.1-0.1,0.2-0.1,0.2l-0.3-0.1C143.5,106.3,143.5,106.2,143.6,106.1z M144.2,106.7c0.1,0,0.1,0.1,0.2,0.1L144.2,106.7
		C144.2,106.8,144.2,106.7,144.2,106.7z M150.5,100.9c1.1-1.3,2.3-2.5,3.3-3.4c0.7-0.8,0-0.1,0.8-1.1c2.7-2.4,4.6-4.1,7.4-6.7
		c0.7-1,0.7-1.2-0.5-0.3l2.1-2c-1.2,2.1,3.1-2.2,3-1.4c-5.1,5.2-10.1,10.5-15.1,15.8C151.2,101.5,150.8,101.2,150.5,100.9z
		 M170.4,82c-0.2,0.2-0.5,0.5-0.7,0.7c0.2-0.3,0.5-0.7,1-1.2c0.2-0.2,0.4-0.3,0.5-0.5C171,81.4,170.7,81.7,170.4,82z M217.9,42.5
		c-2.3-2.1-4.7-4.3-7.4-6.8c-0.8-0.8-1.5-1.5-2.3-2.2c-0.8-0.7-1.5-1.3-2.3-1.8c-1.5-1.1-2.9-2-4.1-2.8c-1.2-0.8-2.3-1.4-3-2
		c-0.5-0.4-0.9-0.8-1.2-1.2C205.2,30.3,212,36,217.9,42.5z M168.1,14c-0.1,0-0.2,0-0.3,0c0.3,0,0.6,0.1,0.9,0.1
		c1.7,0.4,3.4,0.8,5.1,1.2c1.1,0.3,2.2,0.7,3.4,1.1l-0.1-0.1c4.4,1.4,8.7,3.1,12.9,5.1c-1.2-0.5-2.4-0.9-3.7-1.3
		c4.5,2.4,0.4,1.1-0.9,0.7c-2.3-1.1-3.9-1.8-5.1-2.2c-1.2-0.4-2.1-0.6-2.8-0.7c-0.8-0.1-1.5-0.2-2.5-0.3c-0.5-0.1-1-0.2-1.7-0.3
		c-0.7-0.1-1.4-0.3-2.4-0.5c-0.8-0.3-2-0.6-2.9-0.9c-0.8-0.3-1.3-0.5-0.7-0.5c-1.1-0.1-2.7-0.5-4.4-0.8c-1.7-0.2-3.6-0.6-5.4-0.7
		c-3.6-0.4-6.7-0.3-6.9,0.3c-0.4-0.1-0.5-0.1-0.9-0.2c0.8,1.1,2.4,2.2,4.5,3.3c1.1,0.6,2.3,1.2,3.6,1.9c1.3,0.6,2.7,1.4,4.1,2
		c4.4,0.4,8.5,0.9,12.1,1.4c9,3.6,15.6,6.4,22.2,9.9l1.2,0.6l1.2,0.7c0.8,0.5,1.6,1,2.5,1.4c1.6,1.1,3.3,2.1,4.9,3.4
		c1.7,1.2,3.2,2.7,4.9,4.2c0.8,0.8,1.6,1.7,2.4,2.5c0.8,0.9,1.6,1.9,2.4,2.8C221.5,55.4,225.8,62,229,69c0.9,1.7,1.5,3.5,2.2,5.3
		c0.3,0.9,0.6,1.8,0.9,2.7c0.2,0.5,0.3,0.9,0.5,1.4c0.1,0.5,0.3,0.9,0.4,1.4c0.5,1.5,0.8,3.1,1.1,4.7c-0.6-0.5-1.1-1-1.7-1.5
		c-1.5-1.4-2.2-2.3-2.7-3.2c-3.8-3.6-2.5-2.7-6.3-6.7c-0.6-1.2-10.2-9.3-11.2-10.5l0.7,0.6c-2.2-2.3-3.9-4.3-5.6-6.3
		c-0.9-1-1.7-2-2.6-3c-0.2-0.3-0.5-0.5-0.7-0.8c-0.4-0.4-0.8-0.8-1.2-1.2c-0.9-0.9-1.8-1.8-2.7-2.8c-1-1-2-2-3-3
		c-3.9,3.8-7.9,7.8-11.8,11.7c-3,3-6,6-9,9c-6,6-11.8,11.9-17.2,17.2c0.2,0.4,2.4-2.6,3-2.3c-5.2,5.2-10.7,10.2-16.1,15.3
		c-3.5-3-7-5.9-10.1-8.6c-7.7-8.8-5.6-3.7-13.4-10.8c-4.4-5-13.3-12.5-15.5-16.1c6.6,6.5,8.9,6,15.6,13.2
		c-2.2-3.1,12.2,11.2,6.7,4.4c-4.7-4-9.6-8.5-14.4-13.3c-4.9-4.9-9.9-9.8-14.7-14.6c-2.6,2.6-5.2,5.3-7.4,7.7
		c-2.2,2.4-4.3,4.8-6.2,7.1c-0.5-2.3-16,14.4-21.2,19.9l-0.7,0c-2.1,1.9-4,3.7-6,5.7c0.1-0.5,0.1-1,0.2-1.5
		c0.8-0.6,1.8-5.4,3.4-10.9c0.9-3.2,2.1-6.6,3.2-9.6c0.6-1.5,1.2-2.9,1.7-4.2c0.5-1.3,1.1-2.3,1.5-3.2l0.7-0.2
		c0.8-1.5,1.7-2.7,2.5-4.1c0.8-1.3,1.7-2.6,2.6-4c1.9-2.8,4-6,7.3-10.1c4.1-4.8,8.7-9.1,13.6-12.7c4.9-3.6,10-6.4,15-8.2
		c7.3-2.7,15.3-5.6,22.5-7.5c5.1-1.4,9.8-2.3,13.3-3c1.2,0,2.4-0.1,3.6-0.1C156.1,12.2,162.2,12.8,168.1,14z M96.8,154.6
		c0.5,0.5,0.3,0.4-0.2,0.1C96.5,154.6,96.6,154.5,96.8,154.6z M98.2,157.3c-0.2-0.1-0.6-0.6-0.9-0.9c0.6,0.6-1.1-0.6-2.8-2l-0.3-0.2
		l-0.4-0.8l0.8,0.8c0.3,0.3,0.5,0.5,0.7,0.7c0.1-0.1-0.2-0.4-0.1-0.4c0.3,0.2,0.7,0.6,1.1,0.9c0.1,0.1,0.2,0.2,0.4,0.3L97,156
		c0.3,0.2,0.6,0.5,0.8,0.7C98,156.9,98.1,157.1,98.2,157.3z M93.2,152.1l0.1-0.1l0.7,1l-0.5-0.3L93.2,152.1z M91.8,152.3l1.4,1.1
		L91.8,152.3L91.8,152.3z M94.7,149l-0.3,0.3l-0.5,0.4l0.6-0.9c0.1-0.1,0.2-0.2,0.3-0.3c0.8-0.6,2.3-2.1,2.3-1.8
		c0.1-0.1,0.1-0.2,0.2-0.3l0.6-0.5c-0.3,0.4-0.8,0.9-1.3,1.5c0.1-0.2,0.2-0.3,0.3-0.4C96.3,147.3,95.4,148.2,94.7,149z M40.7,117
		l-2.2,3.5c-0.2,0.1-0.4,0.1-0.6,0.1l1.1-1.1l-1.6,0.5C38.5,118.9,39.6,117.8,40.7,117z M30.4,130.6c-1.6,1.5-2.8,2.5-3.6,3.4
		c-1.5,0.8,0.6-2.1,1.5-3.7l3.7-3.4c0.3-0.3,0.6-0.5,0.9-0.7l-2.8,3.3C33.8,126.1,31.3,129.4,30.4,130.6z M32.3,125.1
		c0.1-0.1,0.2-0.3,0.4-0.4c1.1-1,2.2-2.2,3.4-3.4l0.1,0.3C35,122.6,33.7,123.9,32.3,125.1z M39.5,120c1-1.1,2-2.1,3.1-3
		C41.3,118.3,40.3,119.4,39.5,120z M217.7,180.8c-1,0.7-1.9,1.5-2.8,2.2c-0.9,0.7-1.8,1.4-2.6,2c-1.6,1.3-3.1,2.4-4.3,3.4
		c-1.2,1-2.4,1.7-3.3,2.3c-0.7,0.4-1.2,0.6-1.7,0.6c8.3-5.1,15.9-11.4,22.4-18.6C223.3,175.4,220.8,178.1,217.7,180.8z"/>
	<path class="st0" d="M96.9,145.4c0.1,0,0,0.2-0.3,0.5C97.1,145.3,97.3,145,96.9,145.4z"/>
	<path class="st0" d="M97,146.6c-0.1,0.1-0.2,0.2-0.3,0.4c0,0,0.1-0.1,0.1-0.1C97,146.8,97,146.7,97,146.6z"/>
</g>
</svg>
