<?xml version="1.0" encoding="utf-8"?>
<!-- Generator: Adobe Illustrator 17.1.0, SVG Export Plug-In . SVG Version: 6.00 Build 0)  -->
<!DOCTYPE svg PUBLIC "-//W3C//DTD SVG 1.1//EN" "http://www.w3.org/Graphics/SVG/1.1/DTD/svg11.dtd">
<svg version="1.1" id="Layer_1" xmlns="http://www.w3.org/2000/svg" xmlns:xlink="http://www.w3.org/1999/xlink" x="0px" y="0px"
	 viewBox="0 0 330.5 222.4" enable-background="new 0 0 330.5 222.4" xml:space="preserve">
<g>
	<path fill="#FFFFFF" d="M330.5,160.9l-52.4-52.4C276.7,48.5,227.4,0,167,0C107.4,0,58.6,47.1,55.9,106L0,161.9l10.9,10.9l46-46
		c7.6,54,54.1,95.6,110.1,95.6c55.3,0,101.3-40.5,109.8-93.5l42.9,42.9L330.5,160.9z M167,207.6c-52.5,0-95.4-42.2-96.4-94.5
		l43.2-43.2l41,41l-51,51l10.9,10.9l51-51l50.1,50.1l10.9-10.9l-50.1-50.1l41-41l45.6,45.6C261,166.6,218.7,207.6,167,207.6z
		 M217.6,48l-51.9,51.9L113.8,48L73.2,88.6c10.2-42.3,48.3-73.9,93.7-73.9c46.5,0,85.5,33.1,94.5,77.1L217.6,48z"/>
</g>
</svg>
