<?xml version="1.0" encoding="utf-8"?>
<!-- Generator: Adobe Illustrator 26.0.1, SVG Export Plug-In . SVG Version: 6.00 Build 0)  -->
<svg version="1.1" id="Layer_1" xmlns="http://www.w3.org/2000/svg" xmlns:xlink="http://www.w3.org/1999/xlink" x="0px" y="0px"
	 viewBox="0 0 300 202.1" style="enable-background:new 0 0 300 202.1;" xml:space="preserve">
<g>
	<path fill="#FFFFFF" d="M300,146.2l-47.5-47.5c-1.3-54.5-46-98.5-100.9-98.5c-54.1,0-98.3,42.7-100.8,96.2L0,147l9.9,9.9l41.7-41.7
		c6.9,49,49.1,86.8,99.9,86.8c50.2,0,91.9-36.8,99.6-84.8l38.9,38.9L300,146.2z M151.6,188.5c-47.7,0-86.6-38.3-87.5-85.8l39.3-39.3
		l37.2,37.2L94.2,147l9.9,9.9l46.3-46.3l45.5,45.5l9.9-9.9l-45.5-45.5l37.2-37.2l41.4,41.4C236.9,151.4,198.5,188.5,151.6,188.5z
		 M197.5,43.7l-47.1,47.1l-47.1-47.1L66.5,80.6c9.2-38.4,43.9-67,85.1-67c42.2,0,77.6,30.1,85.7,69.9L197.5,43.7z"/>
</g>
</svg>
